<svg width="50" height="51" viewBox="0 0 50 51" fill="none" xmlns="http://www.w3.org/2000/svg">
<path d="M18.8137 49.4067L1.44074 32.0339C0.59332 31.1865 0.59332 29.8305 1.44074 28.983L26.017 4.2373H45.7628V24.8305L21.8645 49.4068C21.017 50.1694 19.6611 50.1694 18.8137 49.4067Z" fill="white"/>
<path d="M20.339 50.8474C19.5763 50.8474 18.8136 50.5085 18.2204 50L0.847424 32.6271C0.254237 32.0339 0 31.2712 0 30.5084C0 29.7457 0.33895 28.983 0.847424 28.3898L25.678 3.38977H46.6101V25.1695L22.4576 50C21.8644 50.5085 21.1017 50.8474 20.339 50.8474ZM26.3559 5.08472L2.11861 29.5762C1.86437 29.8304 1.69485 30.1694 1.69485 30.5084C1.69485 30.8474 1.86437 31.1864 2.0338 31.4407L19.4067 48.8135C19.9152 49.322 20.7626 49.322 21.2711 48.8135L44.9152 24.4915V5.08472H26.3559Z" fill="#6691FF"/>
<path d="M9.57634 20.8474L1.44074 28.983C0.59332 29.8304 0.59332 31.1864 1.44074 32.0339L18.8136 49.4067C19.661 50.2541 21.017 50.2541 21.8644 49.4067L29.9153 41.1864L9.57634 20.8474Z" fill="#C9D8FF"/>
<path d="M20.339 50.8473C19.5763 50.8473 18.8136 50.5083 18.2204 49.9998L0.847424 32.6269C0.254237 32.0337 0 31.271 0 30.5083C0 29.7456 0.33895 28.9829 0.847424 28.3897L9.5762 19.6609L31.1017 41.1862L22.4576 49.9998C21.8644 50.5083 21.1017 50.8473 20.339 50.8473ZM9.5762 22.0337L2.11861 29.576C1.86437 29.8303 1.69485 30.1692 1.69485 30.5083C1.69485 30.8472 1.86437 31.1863 2.0338 31.4405L19.4067 48.8134C19.9152 49.3218 20.7626 49.3218 21.2711 48.8134L28.7287 41.1862L9.5762 22.0337Z" fill="#6691FF"/>
<path d="M40.6781 12.7118C40.6781 14.5762 39.1527 16.1016 37.2883 16.1016C35.424 16.1016 33.8984 14.5762 33.8984 12.7118C33.8984 10.8474 35.4239 9.32202 37.2882 9.32202C39.1526 9.32202 40.6781 10.8474 40.6781 12.7118Z" fill="#C9D8FF"/>
<path d="M37.2881 16.949C34.9153 16.949 33.0508 15.0846 33.0508 12.7117C33.0508 10.3387 34.9152 8.47437 37.2881 8.47437C39.6609 8.47437 41.5254 10.3387 41.5254 12.7117C41.5254 15.0846 39.661 16.949 37.2881 16.949ZM37.2881 10.1693C35.8474 10.1693 34.7457 11.271 34.7457 12.7117C34.7457 14.1524 35.8474 15.2541 37.2881 15.2541C38.7288 15.2541 39.8305 14.1524 39.8305 12.7117C39.8305 11.271 38.7288 10.1693 37.2881 10.1693Z" fill="#6691FF"/>
<path d="M37.2883 13.5593C37.0341 13.5593 36.8646 13.4746 36.6951 13.305C36.3562 12.9661 36.3562 12.4576 36.6951 12.1186L48.5596 0.254212C48.8985 -0.0847375 49.407 -0.0847375 49.746 0.254212C50.085 0.593162 50.085 1.10164 49.746 1.44069L37.8816 13.305C37.7121 13.4746 37.5426 13.5593 37.2883 13.5593Z" fill="#6691FF"/>
</svg>
